<svg width="512" height="512" viewBox="0 0 135.467 135.467" xmlns:xlink="http://www.w3.org/1999/xlink" xmlns="http://www.w3.org/2000/svg"><defs><linearGradient id="a"><stop style="stop-color:#1f1f1f;stop-opacity:1" offset="0"/><stop style="stop-color:#1f1f1f;stop-opacity:.255" offset="1"/></linearGradient><linearGradient xlink:href="#a" id="b" x1="115.255" y1="116.669" x2="-634.309" y2="-639.702" gradientUnits="userSpaceOnUse"/><linearGradient xlink:href="#a" id="c" gradientUnits="userSpaceOnUse" gradientTransform="matrix(3.77953 0 0 3.77953 0 0)" x1="115.255" y1="116.669" x2="-634.309" y2="-639.702"/></defs><circle style="fill:url(#b);fill-opacity:1;fill-rule:nonzero;stroke:none;stroke-width:.347899;stroke-dasharray:.347899,.6958" cx="67.733" cy="67.733" r="67.733"/><path style="fill:url(#c);fill-opacity:1;fill-rule:nonzero;stroke:none;stroke-width:1.31489;stroke-dasharray:1.31489,2.6298" d="m364.014 63.428-57.13 35.566-62.933 94.047 15.557 96.166-93.176 168.018 51.967 51.966A256 256 0 0 0 256 512a256 256 0 0 0 256-256 256 256 0 0 0-4.838-49.424L364.014 63.428z" transform="scale(.26458)"/><path style="fill:#fff;fill-opacity:1;stroke-width:.203642" d="M44.395 119.6c3.409-12.147 12.82-46.222 12.82-46.42 0-.213-1.52-.265-7.763-.265-7.294 0-7.756-.02-7.665-.356.053-.196 3.566-12.842 7.806-28.103l7.71-27.746h19.505c10.728 0 19.506.033 19.506.072 0 .042-5.602 10.683-12.449 23.65C77.018 53.4 71.372 64.18 71.318 64.388c-.095.364.307.38 11.23.43l11.33.053-22.558 28.04-22.557 28.038-2.377.013-2.377.012.386-1.375z"/><path style="fill:#000;fill-opacity:.627451;stroke:none;stroke-width:.264583px;stroke-linecap:butt;stroke-linejoin:miter;stroke-opacity:1;opacity:.25" d="m41.812 72.7.929-.171 15.468-1.266 10.733 11.15-8.007 9.41z"/><path style="fill:#fff;fill-opacity:1;stroke-width:.203642" d="M44.395 119.6c3.409-12.147 12.82-46.222 12.82-46.42 0-.213-1.52-.265-7.763-.265-7.294 0-7.756-.02-7.665-.356.053-.196 3.566-12.842 7.806-28.103l7.71-27.746h19.505c10.728 0 19.506.033 19.506.072 0 .042-5.602 10.683-12.449 23.65C77.018 53.4 71.372 64.18 71.318 64.388c-.095.364.307.38 11.23.43l11.33.053-22.558 28.04-22.557 28.038-2.377.013-2.377.012.386-1.375z"/></svg>