<svg width="32" height="32" viewBox="0 0 24 24" xmlns="http://www.w3.org/2000/svg"><g style="fill:#fff"><path d="M376.72 420.35c0 14.652-11.879 26.527-26.527 26.527-14.652 0-26.527-11.875-26.527-26.527 0-14.648 11.875-26.527 26.527-26.527 14.648 0 26.527 11.879 26.527 26.527" style="fill:#fff" transform="matrix(.07014 0 0 .07014 -12.658 -7.64)"/><path d="M380.91 420.35c0 16.941-13.781 30.727-30.723 30.727-16.945 0-30.727-13.789-30.727-30.727 0-16.941 13.781-30.727 30.727-30.727 16.941 0 30.723 13.789 30.723 30.727zm-53.051 0c0 12.309 10.02 22.328 22.328 22.328s22.32-10.02 22.32-22.328c0-12.309-10.012-22.328-22.32-22.328-12.312.004-22.328 10.02-22.328 22.328zM376.72 280.18c0 14.652-11.879 26.527-26.527 26.527-14.652 0-26.527-11.875-26.527-26.527 0-14.648 11.875-26.527 26.527-26.527 14.648 0 26.527 11.879 26.527 26.527" style="fill:#fff" transform="matrix(.07014 0 0 .07014 -12.658 -7.64)"/><path d="M380.91 280.18c0 16.945-13.781 30.727-30.715 30.727-16.945 0-30.727-13.781-30.727-30.727 0-16.945 13.781-30.727 30.727-30.727 16.934 0 30.715 13.781 30.715 30.727zm-53.047 0c0 12.309 10.02 22.328 22.328 22.328 12.305 0 22.316-10.02 22.316-22.328 0-12.312-10.012-22.328-22.316-22.328-12.316.004-22.328 10.016-22.328 22.328zM376.72 139.65c0 14.648-11.875 26.527-26.527 26.527-14.648 0-26.527-11.879-26.527-26.527 0-14.652 11.879-26.527 26.527-26.527 14.652 0 26.527 11.875 26.527 26.527" style="fill:#fff" transform="matrix(.07014 0 0 .07014 -12.658 -7.64)"/><path d="M380.91 139.65c0 16.941-13.781 30.727-30.715 30.727-16.945 0-30.727-13.789-30.727-30.727 0-16.941 13.781-30.723 30.727-30.723 16.934-.004 30.715 13.777 30.715 30.723zm-53.047 0c0 12.309 10.02 22.328 22.328 22.328 12.305 0 22.316-10.02 22.316-22.328 0-12.309-10.012-22.32-22.316-22.32-12.309-.008-22.328 10.004-22.328 22.32z" style="fill:#fff" transform="matrix(.07014 0 0 .07014 -12.658 -7.64)"/></g></svg>