<svg width="32" height="32" viewBox="0 0 24 24" xmlns="http://www.w3.org/2000/svg"><path d="M15.859 20.572A3.439 3.439 0 0 1 12.428 24 3.439 3.439 0 0 1 9 20.572a3.439 3.439 0 0 1 3.428-3.43 3.439 3.439 0 0 1 3.43 3.43Zm0-8.572a3.439 3.439 0 0 1-3.43 3.428A3.439 3.439 0 0 1 9.001 12a3.439 3.439 0 0 1 3.428-3.428A3.439 3.439 0 0 1 15.86 12Zm0-8.572a3.439 3.439 0 0 1-3.43 3.43 3.439 3.439 0 0 1-3.428-3.431A3.439 3.439 0 0 1 12.43 0a3.439 3.439 0 0 1 3.43 3.428Z" style="fill:#fff;stroke-width:.0489796"/></svg>