<svg width="32" height="32" viewBox="0 0 24 24" xmlns="http://www.w3.org/2000/svg"><path d="M11.126 0a.998.998 0 0 0-.42.106l-4 2a1 1 0 0 0 0 1.789l4 2a1 1 0 0 0 1.448-.896v-.777A7.76 7.76 0 0 1 19.933 12a1.25 1.25 0 1 0 2.5 0c0-5.661-4.617-10.279-10.279-10.279V1A1 1 0 0 0 11.125 0zm-8.02 10.733A1.25 1.25 0 0 0 1.876 12a10.28 10.28 0 0 0 10.278 10.28v.722a1 1 0 0 0 1.449.892l3.999-2a1 1 0 0 0 0-1.789l-4-2a1 1 0 0 0-1.448.897v.777a7.78 7.78 0 0 1-5.503-2.276A7.779 7.779 0 0 1 4.376 12a1.25 1.25 0 0 0-1.27-1.267Z" fill-rule="evenodd" style="stroke-width:.0527463;fill:#fff"/></svg>