<svg width="32" height="32" viewBox="0 0 24 24" xmlns="http://www.w3.org/2000/svg"><path d="M7.2.6v6a.6.6 0 0 0 .6.6h8.4a.6.6 0 0 0 .6-.6v-6a.6.6 0 0 1 .6-.6h1.055a1.8 1.8 0 0 1 1.272.528l3.746 3.745A1.8 1.8 0 0 1 24 5.546V22.2a1.8 1.8 0 0 1-1.8 1.8H1.8A1.8 1.8 0 0 1 0 22.2V1.8A1.8 1.8 0 0 1 1.8 0h4.8a.6.6 0 0 1 .6.6Zm5.4-.6h1.2a.6.6 0 0 1 .6.6v3.6a.6.6 0 0 1-.6.6h-1.2a.6.6 0 0 1-.6-.6V.6a.6.6 0 0 1 .6-.6zM2.4 10.2V21a.6.6 0 0 0 .6.6h18a.6.6 0 0 0 .6-.6V10.2a.6.6 0 0 0-.6-.6H3a.6.6 0 0 0-.6.6zM6 12h12a1.2 1.2 0 1 1 0 2.4H6A1.2 1.2 0 1 1 6 12zm0 4.8h12a1.2 1.2 0 1 1 0 2.4H6a1.2 1.2 0 1 1 0-2.4z" fill-rule="evenodd" style="stroke-width:.107142;fill:#fff;fill-opacity:1"/></svg>