<svg width="32" height="32" viewBox="0 0 24 24" xmlns="http://www.w3.org/2000/svg"><path d="M23.924 10.671c-.038-.338-.432-.59-.773-.59a2.641 2.641 0 0 1-1.815-4.61.667.667 0 0 0 .074-.91c-.56-.71-1.2-1.354-1.904-1.92a.67.67 0 0 0-.914.074 2.76 2.76 0 0 1-2.992.674A2.673 2.673 0 0 1 13.982.782.673.673 0 0 0 13.39.08a12.103 12.103 0 0 0-2.7-.007.67.67 0 0 0-.595.684 2.666 2.666 0 0 1-1.644 2.559 2.785 2.785 0 0 1-2.973-.675.668.668 0 0 0-.905-.074 11.915 11.915 0 0 0-1.94 1.92.675.675 0 0 0 .07.915 2.656 2.656 0 0 1 .679 3A2.774 2.774 0 0 1 .77 10.014a.653.653 0 0 0-.692.59c-.105.906-.105 1.821 0 2.727.031.35.44.59.783.59a2.64 2.64 0 0 1 2.468 1.647 2.671 2.671 0 0 1-.67 2.967.668.668 0 0 0-.074.907c.558.71 1.195 1.354 1.9 1.92a.669.669 0 0 0 .914-.07 2.768 2.768 0 0 1 2.997-.679 2.657 2.657 0 0 1 1.62 2.604.672.672 0 0 0 .59.704c.46.052.922.078 1.384.079.44 0 .88-.024 1.318-.075a.67.67 0 0 0 .596-.688 2.66 2.66 0 0 1 1.64-2.559 2.772 2.772 0 0 1 2.965.684.668.668 0 0 0 .905.074 12.107 12.107 0 0 0 1.94-1.92.669.669 0 0 0-.07-.914 2.64 2.64 0 0 1 1.787-4.62h.15-.001a.672.672 0 0 0 .704-.591c.1-.904.1-1.816 0-2.72zm-11.907 5.355a4.003 4.003 0 0 1-4.002-4.001 4 4 0 0 1 4.002-4.001 4.003 4.003 0 0 1 4.003 4 4.005 4.005 0 0 1-4.003 4.002z" style="stroke-width:.0428692;fill:#fff"/></svg>